<?xml version="1.0" standalone="no"?>
<!DOCTYPE svg PUBLIC "-//W3C//DTD SVG 20010904//EN"
 "http://www.w3.org/TR/2001/REC-SVG-20010904/DTD/svg10.dtd">
<svg version="1.0" xmlns="http://www.w3.org/2000/svg"
 width="300.000000pt" height="143.000000pt" viewBox="0 0 300.000000 143.000000"
 preserveAspectRatio="xMidYMid meet">

<g transform="translate(0.000000,143.000000) scale(0.100000,-0.100000)"
fill="#000000" stroke="none">
<path d="M240 1359 c-39 -16 -78 -58 -116 -125 -59 -105 -37 -114 54 -23 33
34 67 59 74 56 30 -10 11 -75 -56 -191 -37 -63 -78 -142 -92 -175 -39 -98 -29
-201 20 -201 20 0 36 22 36 49 0 32 50 132 112 226 53 79 175 225 189 225 18
0 8 -25 -47 -116 -64 -107 -103 -196 -104 -239 0 -59 52 -103 98 -82 13 6 72
72 131 146 134 169 206 248 242 267 16 8 29 11 29 6 0 -4 -34 -57 -75 -117
-82 -119 -115 -193 -115 -260 0 -56 30 -93 82 -102 54 -8 84 3 133 48 l44 41
6 -25 c15 -56 93 -84 152 -53 47 24 148 164 130 182 -3 4 -29 -14 -56 -40 -61
-57 -99 -76 -111 -56 -13 21 8 66 86 182 82 122 95 159 68 189 -32 36 -77 23
-104 -32 -52 -102 -176 -253 -250 -304 -80 -55 -67 -10 46 166 113 174 144
234 144 274 0 109 -128 103 -253 -13 -27 -26 -95 -103 -150 -172 -55 -69 -105
-127 -110 -129 -10 -4 16 43 53 99 27 39 76 142 84 174 11 43 -10 91 -48 111
-28 15 -38 16 -72 5 -21 -7 -54 -23 -72 -37 l-32 -24 -26 30 c-22 27 -37 35
-84 46 -8 2 -26 -1 -40 -6z"/>
<path d="M1155 1348 c-27 -15 -35 -28 -35 -59 0 -34 29 -59 68 -59 57 0 86 82
40 114 -26 19 -45 20 -73 4z"/>
<path d="M1520 535 l0 -185 45 0 45 0 0 185 0 185 -45 0 -45 0 0 -185z"/>
<path d="M2410 690 c0 -28 2 -30 40 -30 38 0 40 2 40 30 0 28 -2 30 -40 30
-38 0 -40 -2 -40 -30z"/>
<path d="M1723 678 c-27 -9 -33 -16 -33 -39 0 -24 -4 -29 -25 -29 -21 0 -25
-5 -25 -30 0 -25 4 -30 24 -30 23 0 24 -3 27 -85 5 -103 15 -116 93 -123 l56
-4 0 30 c0 26 -4 31 -27 34 -27 3 -28 5 -31 76 l-3 72 31 0 c27 0 30 3 30 30
0 27 -3 30 -30 30 -28 0 -30 2 -30 40 0 43 -4 45 -57 28z"/>
<path d="M143 595 c-66 -28 -94 -126 -54 -191 23 -38 76 -64 129 -64 57 0 72
8 72 39 0 24 -3 26 -44 26 -55 0 -86 25 -86 70 0 48 33 77 84 73 37 -2 41 0
44 21 2 13 -2 28 -10 32 -20 13 -99 10 -135 -6z"/>
<path d="M381 592 c-51 -25 -74 -63 -74 -117 0 -78 63 -135 148 -135 85 0 148
57 148 135 0 78 -63 135 -148 135 -22 0 -55 -8 -74 -18z m125 -73 c21 -42 11
-96 -21 -111 -33 -15 -69 -3 -83 27 -16 34 -15 50 3 85 13 25 22 30 50 30 29
0 37 -5 51 -31z"/>
<path d="M640 480 l0 -130 40 0 40 0 0 65 c0 77 15 113 48 122 43 10 62 -25
62 -113 l0 -74 40 0 40 0 0 99 c0 116 -3 127 -41 146 -44 23 -93 19 -128 -11
l-31 -26 0 26 c0 23 -4 26 -35 26 l-35 0 0 -130z"/>
<path d="M1000 603 c-34 -12 -50 -37 -50 -74 0 -43 16 -57 83 -79 39 -12 54
-49 20 -51 -26 -2 -25 -2 -65 5 -37 7 -38 6 -38 -22 0 -33 17 -42 86 -42 81 0
124 28 124 82 0 38 -28 67 -78 81 -80 24 -62 72 19 50 36 -9 37 -9 41 18 3 21
0 29 -16 33 -26 7 -106 6 -126 -1z"/>
<path d="M1192 499 c3 -107 4 -112 31 -135 39 -33 95 -33 136 2 30 25 31 25
31 5 0 -18 6 -21 40 -21 l40 0 0 130 0 130 -45 0 -45 0 0 -80 c0 -67 -3 -83
-20 -100 -25 -25 -56 -26 -70 -1 -5 11 -10 56 -10 100 l0 81 -46 0 -46 0 4
-111z"/>
<path d="M1934 596 c-50 -22 -74 -61 -74 -121 0 -85 56 -135 150 -135 114 0
183 104 132 199 -34 64 -132 90 -208 57z m116 -61 c6 -8 14 -32 17 -53 4 -32
1 -44 -16 -61 -37 -37 -85 -26 -101 23 -11 35 0 83 23 98 20 13 64 9 77 -7z"/>
<path d="M2190 480 l0 -130 40 0 40 0 0 54 c0 92 26 136 79 136 12 0 21 6 21
13 0 6 3 22 6 35 6 20 3 22 -29 22 -26 0 -41 -7 -56 -26 l-21 -27 0 27 c0 24
-3 26 -40 26 l-40 0 0 -130z"/>
<path d="M2410 480 l0 -130 40 0 40 0 0 130 0 130 -40 0 -40 0 0 -130z"/>
<path d="M2605 594 c-67 -34 -90 -106 -56 -177 25 -51 70 -77 134 -77 88 0
149 55 149 135 0 56 -22 92 -73 117 -42 22 -114 23 -154 2z m131 -80 c29 -68
-13 -129 -76 -109 -26 8 -43 51 -36 89 9 42 24 56 63 56 30 0 36 -5 49 -36z"/>
<path d="M2300 165 l0 -115 25 0 c14 0 25 5 25 11 0 5 10 3 22 -5 32 -22 55
-20 83 9 32 31 33 82 4 120 -22 27 -46 30 -91 10 -16 -6 -18 -1 -18 39 0 42
-2 46 -25 46 l-25 0 0 -115z m123 -17 c15 -23 -6 -68 -33 -68 -27 0 -44 43
-29 71 12 24 47 22 62 -3z"/>
<path d="M2530 165 l0 -115 25 0 25 0 0 115 0 115 -25 0 -25 0 0 -115z"/>
<path d="M1210 240 c-36 -36 -20 -82 34 -100 19 -6 39 -17 45 -24 18 -21 -13
-40 -53 -33 -28 4 -35 2 -39 -14 -6 -23 27 -34 80 -26 45 8 73 33 73 67 0 31
-22 53 -65 67 -20 6 -30 16 -30 29 0 16 7 19 43 18 34 -1 42 3 42 18 0 27
-102 26 -130 -2z"/>
<path d="M1900 155 l0 -105 25 0 c22 0 25 4 25 34 0 31 3 34 38 41 50 9 72 31
72 71 0 46 -29 64 -102 64 l-58 0 0 -105z m105 34 c0 -19 -6 -25 -27 -27 -25
-3 -28 0 -28 26 0 36 7 43 33 33 14 -5 22 -17 22 -32z"/>
<path d="M1423 203 c-23 -9 -15 -36 8 -30 25 7 69 -8 69 -23 0 -5 -18 -10 -39
-10 -63 0 -93 -47 -54 -85 11 -12 25 -15 47 -10 17 3 46 6 64 6 l32 -1 0 60
c0 74 -21 100 -77 99 -21 0 -44 -3 -50 -6z m77 -98 c0 -20 -39 -40 -52 -27 -6
6 -8 18 -5 26 8 20 57 21 57 1z"/>
<path d="M1667 193 c-11 -11 -17 -13 -17 -5 0 7 -11 12 -25 12 -24 0 -25 -2
-25 -75 0 -73 1 -75 25 -75 23 0 25 4 25 43 0 97 62 104 68 8 3 -47 5 -51 28
-51 23 0 24 3 24 58 0 69 -19 102 -58 102 -15 0 -35 -8 -45 -17z"/>
<path d="M2127 203 c-25 -7 -15 -28 14 -29 52 -2 59 -5 59 -19 0 -11 -11 -15
-40 -15 -31 0 -43 -5 -56 -25 -15 -23 -15 -27 0 -50 19 -29 51 -32 84 -9 12 8
22 10 22 5 0 -6 10 -11 23 -11 21 0 22 3 19 65 -3 53 -8 68 -25 80 -21 14 -62
18 -100 8z m73 -98 c0 -23 -35 -37 -50 -20 -16 19 -4 35 26 35 14 0 24 -6 24
-15z"/>
<path d="M2673 200 c-39 -16 -56 -77 -33 -119 14 -26 64 -44 103 -37 46 9 69
36 69 83 0 65 -68 101 -139 73z m83 -54 c9 -39 -4 -66 -32 -66 -32 0 -51 38
-35 69 17 30 59 28 67 -3z"/>
<path d="M2900 141 c17 -5 24 -14 23 -27 -2 -10 0 -30 3 -44 5 -24 6 -24 20
-6 8 11 14 27 14 36 0 22 -36 50 -63 49 -21 -1 -21 -1 3 -8z"/>
<path d="M2855 118 c-7 -29 10 -72 26 -63 14 9 11 48 -5 71 -14 18 -15 18 -21
-8z"/>
</g>
</svg>
